# xmcd CD database file
#
# Track frame offsets:
#	150
#	12747
#	21897
#	31347
#	41547
#	54372
#	70647
#	79872
#	91160
#	106010
#	118385
#	126372
#	142947
#	157497
#	166197
#	187497
#
# Disc length: 2695 seconds
#
# Revision: 2
# Processed by: cddbd v1.4b41PL1 Copyright (c) Steve Scherf et al.
# Submitted via: Feurio! 1.50.2ß - http://www.feurio.com
#
DISCID=dc0a8510
DTITLE=Various Artist - Easy Listening 1
DYEAR=1900
DGENRE=
TTITLE0=Tommy Dorsey - You're My Everything
TTITLE1=Bill Holliday - Blue Moon
TTITLE2=Billy Vaughn Orchestra - Red Roses For A Blue Lady
TTITLE3=Louis Armstrong - What A Wonderful World
TTITLE4=Tommy Dorsey - Silk Stockings
TTITLE5=Nina Simone - My Baby Just Cares For Me
TTITLE6=Les Millers Orchestra - Sail Along Silvery Moon
TTITLE7=Tommy Dorsey - Marie
TTITLE8=Eydie Gorme - Since I Feel For You
TTITLE9=Nat King Cole - Sunny Side Of The Streets
TTITLE10=Billy Vaughn Orchestra - Stangers In The Night
TTITLE11=Nina Simone - Solitude
TTITLE12=Sidney Bechet - Petite Fleur
TTITLE13=Harry James - Sleepy Time Call
TTITLE14=Robert Goulet - The Way We Were
TTITLE15=Lena Horne - Stormy Weather
EXTD=Eigentümerin Petra Rieck
EXTT0=
EXTT1=
EXTT2=
EXTT3=
EXTT4=
EXTT5=
EXTT6=
EXTT7=
EXTT8=
EXTT9=
EXTT10=
EXTT11=
EXTT12=
EXTT13=
EXTT14=
EXTT15=
PLAYORDER=
